<svg width="20" height="15" viewBox="0 0 20 15" fill="none" xmlns="http://www.w3.org/2000/svg">
<path d="M18.25 0.283691H1.75C1.38533 0.283691 1.03559 0.434129 0.777728 0.701909C0.519866 0.969689 0.375 1.33288 0.375 1.71158V13.1347C0.375 13.5134 0.519866 13.8765 0.777728 14.1443C1.03559 14.4121 1.38533 14.5625 1.75 14.5625H18.25C18.6147 14.5625 18.9644 14.4121 19.2223 14.1443C19.4801 13.8765 19.625 13.5134 19.625 13.1347V1.71158C19.625 1.33288 19.4801 0.969689 19.2223 0.701909C18.9644 0.434129 18.6147 0.283691 18.25 0.283691ZM16.7375 1.71158L10 6.5521L3.2625 1.71158H16.7375ZM1.75 13.1347V2.36126L9.60813 8.00855C9.72321 8.09145 9.85993 8.13588 10 8.13588C10.1401 8.13588 10.2768 8.09145 10.3919 8.00855L18.25 2.36126V13.1347H1.75Z" fill="#EF8509"/>
</svg>
