<svg width="22" height="22" viewBox="0 0 22 22" fill="none" xmlns="http://www.w3.org/2000/svg">
<path fill-rule="evenodd" clip-rule="evenodd" d="M6.84288 1.01473C7.91813 0.963327 8.26096 0.951904 11 0.951904C13.739 0.951904 14.0818 0.964279 15.1561 1.01473C16.2305 1.06518 16.9638 1.24319 17.6055 1.50116C18.2774 1.76485 18.887 2.17703 19.3911 2.71011C19.9045 3.23271 20.3005 3.86479 20.5535 4.5635C20.8028 5.22985 20.9733 5.99139 21.0228 7.10514C21.0723 8.22365 21.0833 8.57966 21.0833 11.4231C21.0833 14.2674 21.0714 14.6234 21.0228 15.74C20.9742 16.8538 20.8028 17.6153 20.5535 18.2817C20.3005 18.9805 19.9038 19.6136 19.3911 20.137C18.887 20.67 18.2774 21.0813 17.6055 21.344C16.9638 21.6029 16.2305 21.78 15.158 21.8314C14.0818 21.8828 13.739 21.8942 11 21.8942C8.26096 21.8942 7.91813 21.8818 6.84288 21.8314C5.77038 21.7809 5.03704 21.6029 4.39538 21.344C3.72247 21.0812 3.11279 20.6693 2.60879 20.137C2.09581 19.614 1.69883 18.9812 1.44554 18.2826C1.19713 17.6163 1.02663 16.8547 0.977126 15.741C0.927626 14.6225 0.916626 14.2665 0.916626 11.4231C0.916626 8.57871 0.928543 8.22269 0.977126 7.10704C1.02571 5.99139 1.19713 5.22985 1.44554 4.5635C1.69921 3.86487 2.09648 3.23206 2.60971 2.70915C3.113 2.17655 3.72206 1.76432 4.39446 1.50116C5.03613 1.24319 5.76946 1.06614 6.84196 1.01473H6.84288ZM15.0745 2.89954C14.0112 2.84909 13.6922 2.83862 11 2.83862C8.30771 2.83862 7.98871 2.84909 6.92538 2.89954C5.94179 2.94618 5.40829 3.11658 5.05263 3.26032C4.58238 3.4507 4.24596 3.67631 3.89304 4.0428C3.5585 4.38078 3.30104 4.79223 3.13954 5.24698C3.00113 5.61633 2.83704 6.17035 2.79213 7.19176C2.74354 8.29599 2.73346 8.62726 2.73346 11.4231C2.73346 14.2189 2.74354 14.5501 2.79213 15.6544C2.83704 16.6758 3.00113 17.2298 3.13954 17.5991C3.30088 18.0532 3.55846 18.4654 3.89304 18.8033C4.21846 19.1508 4.61538 19.4183 5.05263 19.5858C5.40829 19.7295 5.94179 19.8999 6.92538 19.9466C7.98871 19.997 8.30679 20.0075 11 20.0075C13.6931 20.0075 14.0112 19.997 15.0745 19.9466C16.0581 19.8999 16.5916 19.7295 16.9473 19.5858C17.4175 19.3954 17.754 19.1698 18.1069 18.8033C18.4415 18.4654 18.699 18.0532 18.8604 17.5991C18.9988 17.2298 19.1629 16.6758 19.2078 15.6544C19.2564 14.5501 19.2665 14.2189 19.2665 11.4231C19.2665 8.62726 19.2564 8.29599 19.2078 7.19176C19.1629 6.17035 18.9988 5.61633 18.8604 5.24698C18.677 4.75865 18.4598 4.40929 18.1069 4.0428C17.7814 3.69541 17.3852 3.42806 16.9473 3.26032C16.5916 3.11658 16.0581 2.94618 15.0745 2.89954ZM9.71204 14.651C10.4313 14.962 11.2322 15.0039 11.978 14.7698C12.7237 14.5356 13.3681 14.0398 13.8009 13.3671C14.2338 12.6944 14.4283 11.8865 14.3513 11.0814C14.2743 10.2763 13.9305 9.52395 13.3787 8.95282C13.0269 8.58773 12.6016 8.30819 12.1333 8.1343C11.665 7.96042 11.1654 7.89653 10.6704 7.94722C10.1755 7.99792 9.69752 8.16194 9.27095 8.42748C8.84438 8.69302 8.47981 9.05348 8.20349 9.4829C7.92717 9.91232 7.74597 10.4 7.67293 10.9109C7.5999 11.4218 7.63685 11.9431 7.78112 12.4373C7.92539 12.9316 8.1734 13.3865 8.50729 13.7693C8.84117 14.1521 9.25263 14.4532 9.71204 14.651ZM7.33513 7.61727C7.8164 7.11749 8.38775 6.72104 9.01657 6.45056C9.64538 6.18008 10.3193 6.04086 11 6.04086C11.6806 6.04086 12.3545 6.18008 12.9834 6.45056C13.6122 6.72104 14.1835 7.11749 14.6648 7.61727C15.1461 8.11705 15.5278 8.71038 15.7883 9.36338C16.0488 10.0164 16.1828 10.7163 16.1828 11.4231C16.1828 12.1299 16.0488 12.8297 15.7883 13.4827C15.5278 14.1357 15.1461 14.7291 14.6648 15.2288C13.6928 16.2382 12.3745 16.8053 11 16.8053C9.62538 16.8053 8.3071 16.2382 7.33513 15.2288C6.36315 14.2195 5.8171 12.8505 5.8171 11.4231C5.8171 9.99561 6.36315 8.62663 7.33513 7.61727ZM17.3323 6.8424C17.4516 6.72557 17.547 6.58508 17.6131 6.42924C17.6791 6.27341 17.7144 6.1054 17.7168 5.93516C17.7192 5.76491 17.6886 5.59591 17.627 5.43814C17.5653 5.28037 17.4739 5.13704 17.3579 5.01665C17.242 4.89626 17.104 4.80125 16.9521 4.73724C16.8001 4.67324 16.6374 4.64154 16.4734 4.64402C16.3095 4.6465 16.1477 4.68311 15.9977 4.75169C15.8476 4.82027 15.7123 4.91942 15.5998 5.04327C15.381 5.28413 15.2612 5.60407 15.2659 5.93516C15.2705 6.26624 15.3992 6.58241 15.6247 6.81655C15.8502 7.05069 16.1546 7.18436 16.4734 7.18919C16.7923 7.19402 17.1004 7.06962 17.3323 6.8424Z" fill="#EF8509"/>
</svg>
