<svg width="22" height="23" viewBox="0 0 22 23" fill="none" xmlns="http://www.w3.org/2000/svg">
<path d="M4.31344 0.0057373C1.94367 0.0057373 0.00415039 2.01981 0.00415039 4.48077V18.3676C0.00415039 20.8285 1.94363 22.8419 4.31344 22.8419H17.6859C20.0557 22.8419 21.9945 20.8285 21.9945 18.3676V4.48077C21.9945 2.01985 20.0557 0.0057373 17.6859 0.0057373H4.31344ZM5.3973 3.77416C6.53355 3.77416 7.23344 4.54879 7.25504 5.56702C7.25504 6.56277 6.53351 7.35916 5.37532 7.35916H5.354C4.23937 7.35916 3.51894 6.56281 3.51894 5.56702C3.51894 4.54881 4.26117 3.77416 5.39727 3.77416H5.3973ZM15.1891 8.53325C17.3743 8.53325 19.0124 10.0165 19.0124 13.2038V19.1541H15.6915V13.6028C15.6915 12.2078 15.2108 11.2561 14.009 11.2561C13.0915 11.2561 12.5446 11.8975 12.3045 12.5172C12.2168 12.7389 12.1953 13.0485 12.1953 13.3587V19.1541H8.87429C8.87429 19.1541 8.91787 9.75031 8.87429 8.7766H12.1959V10.2462C12.6373 9.53907 13.4267 8.53322 15.1891 8.53322V8.53325ZM3.71482 8.77736H7.03579V19.1541H3.71482V8.77736Z" fill="#EF8509"/>
</svg>
