<svg width="22" height="19" viewBox="0 0 22 19" fill="none" xmlns="http://www.w3.org/2000/svg">
<path d="M21.6727 2.69961C20.9073 3.05182 20.0851 3.2898 19.2206 3.39737C20.1126 2.84315 20.7798 1.97088 21.098 0.943312C20.26 1.4602 19.3429 1.82403 18.3865 2.01898C17.7433 1.30587 16.8914 0.833199 15.9631 0.674368C15.0348 0.515538 14.0819 0.67943 13.2524 1.1406C12.423 1.60177 11.7633 2.33442 11.3759 3.22479C10.9885 4.11516 10.895 5.11345 11.11 6.06466C9.41202 5.97613 7.75096 5.51783 6.23461 4.7195C4.71826 3.92118 3.38049 2.80067 2.30814 1.4307C1.94147 2.08752 1.73064 2.84906 1.73064 3.6601C1.73023 4.39022 1.90337 5.10916 2.23469 5.75312C2.56602 6.39709 3.04528 6.94618 3.62997 7.35166C2.95189 7.32925 2.28877 7.13898 1.6958 6.79669V6.8538C1.69574 7.87782 2.03683 8.87034 2.66122 9.66292C3.28561 10.4555 4.15483 10.9994 5.12139 11.2022C4.49236 11.379 3.83286 11.405 3.19272 11.2783C3.46543 12.1595 3.99663 12.93 4.71197 13.482C5.42731 14.034 6.29098 14.3399 7.18205 14.3569C5.6694 15.59 3.80128 16.2589 1.87822 16.2559C1.53757 16.256 1.19721 16.2354 0.858887 16.1941C2.81091 17.4974 5.0832 18.1891 7.40389 18.1864C15.2597 18.1864 19.5543 11.4297 19.5543 5.56966C19.5543 5.37927 19.5497 5.18698 19.5415 4.9966C20.3768 4.36926 21.0979 3.59241 21.6709 2.70247L21.6727 2.69961Z" fill="#EF8509"/>
</svg>
